<svg width="25" height="25" viewBox="0 0 25 25" fill="none" xmlns="http://www.w3.org/2000/svg">
<path d="M24.9457 5.63624L22.038 17.2891C21.8207 18.1189 21.25 18.6722 20.5707 18.6722H9.34783C8.69565 18.6722 8.07065 18.1535 7.85326 17.3928L3.55978 2.76625H1.08696C0.48913 2.76625 0 2.14385 0 1.38313C0 0.622407 0.48913 0 1.08696 0H4.32065C4.78261 0 5.19022 0.38036 5.35326 0.93361L9.78261 15.9059H20.1087L22.4185 6.56985H9.61957C9.02174 6.56985 8.53261 5.94744 8.53261 5.18672C8.53261 4.426 9.02174 3.8036 9.61957 3.8036H23.913C24.2663 3.8036 24.5924 4.04564 24.7826 4.39142C25 4.73721 25.0543 5.2213 24.9457 5.63624ZM9.8913 20.5048C9.42935 20.5048 8.96739 20.7469 8.6413 21.1618C8.31522 21.5768 8.125 22.1646 8.125 22.7524C8.125 23.3402 8.31522 23.9281 8.6413 24.343C8.96739 24.758 9.42935 25 9.8913 25C10.3533 25 10.8152 24.758 11.1413 24.343C11.4674 23.9281 11.6576 23.3402 11.6576 22.7524C11.6576 22.1646 11.4674 21.5768 11.1413 21.1618C10.8152 20.7469 10.3533 20.5048 9.8913 20.5048ZM19.6467 20.5048C19.1848 20.5048 18.7228 20.7469 18.3967 21.1618C18.0707 21.5768 17.8804 22.1646 17.8804 22.7524C17.8804 23.3402 18.0707 23.9281 18.3967 24.343C18.7228 24.758 19.1848 25 19.6467 25C20.1087 25 20.5707 24.758 20.8967 24.343C21.2228 23.9281 21.413 23.3402 21.413 22.7524C21.413 22.1646 21.2228 21.5768 20.8967 21.1618C20.5707 20.7469 20.1087 20.5048 19.6467 20.5048Z" fill="black"/>
</svg>
